<svg viewBox="0 0 1280 720" xmlns="http://www.w3.org/2000/svg"><rect x="0" y="0" width="1280" height="720" fill="#F7F7F2"></rect><g data-decor="true"></g><g data-archetype="bento-panel"><text x="96" y="150" font-family="Georgia, Songti SC, STSong, serif" font-size="44" font-weight="700" fill="#051C2C" dominant-baseline="alphabetic">场景 4 · 柜面/咨询：管户重配（第二批）</text><g data-audit-rect="96,186,1088,454"><g data-audit-rect="96,186,621.76,454"><g data-audit-box="96,313.3,621.76"><g transform="translate(96,313.3)"><rect x="0" y="0" width="621.76" height="119" rx="2" fill="#051C2C"></rect><rect x="0" y="3" width="621.76" height="116" rx="2" fill="#FFFFFF"></rect><g transform="translate(14,51) scale(0.8333333333333334)"><path stroke="#051C2C" fill="none" stroke-width="2" stroke-linecap="round" stroke-linejoin="round" d="M15 21v-5a1 1 0 0 0-1-1h-4a1 1 0 0 0-1 1v5"></path><path stroke="#051C2C" fill="none" stroke-width="2" stroke-linecap="round" stroke-linejoin="round" d="M17.774 10.31a1.12 1.12 0 0 0-1.549 0 2.5 2.5 0 0 1-3.451 0 1.12 1.12 0 0 0-1.548 0 2.5 2.5 0 0 1-3.452 0 1.12 1.12 0 0 0-1.549 0 2.5 2.5 0 0 1-3.77-3.248l2.889-4.184A2 2 0 0 1 7 2h10a2 2 0 0 1 1.653.873l2.895 4.192a2.5 2.5 0 0 1-3.774 3.244"></path><path stroke="#051C2C" fill="none" stroke-width="2" stroke-linecap="round" stroke-linejoin="round" d="M4 10.95V19a2 2 0 0 0 2 2h12a2 2 0 0 0 2-2v-8.05"></path></g><text x="44" y="39" font-family="Georgia, Songti SC, STSong, serif" font-size="20" fill="#051C2C" dominant-baseline="alphabetic">现状（99wiki）：场景经营仅 17 人——杜悦单点年缺口</text><text x="44" y="67" font-family="Georgia, Songti SC, STSong, serif" font-size="20" fill="#051C2C" dominant-baseline="alphabetic">400h；发票活动 297</text><text x="44" y="95" font-family="Georgia, Songti SC, STSong, serif" font-size="20" fill="#051C2C" dominant-baseline="alphabetic">万参与——流量不缺，转化是洞（07-04）。</text></g></g></g><g data-audit-box="733.76,186,450.24" data-audit-rect="733.76,186,450.24,454"><rect data-bento-shell="true" x="733.76" y="186" width="450.24" height="454" rx="6" fill="#FFFFFF" stroke="#FFC72C" stroke-opacity="0.3" stroke-width="1"></rect><g transform="translate(753.76,253)"><g data-audit-box="753.76,253,410.24"><rect x="0" y="0" width="410.24" height="102" rx="2" fill="#FFFFFF" stroke="none" stroke-width="1"></rect><circle cx="46" cy="51" r="19" fill="none" stroke="#6B6B6B" stroke-width="1.5"></circle><text x="46" y="57" text-anchor="middle" font-size="16" font-weight="bold" fill="#051C2C" font-family="Georgia, Songti SC, STSong, serif" dominant-baseline="alphabetic">1</text><g transform="translate(88,18) scale(0.8333333333333334)"><path stroke="#FFC72C" fill="none" stroke-width="2" stroke-linecap="round" stroke-linejoin="round" d="M16 21v-2a4 4 0 0 0-4-4H6a4 4 0 0 0-4 4v2"></path><path stroke="#FFC72C" fill="none" stroke-width="2" stroke-linecap="round" stroke-linejoin="round" d="M16 3.128a4 4 0 0 1 0 7.744"></path><path stroke="#FFC72C" fill="none" stroke-width="2" stroke-linecap="round" stroke-linejoin="round" d="M22 21v-2a4 4 0 0 0-3-3.87"></path><circle stroke="#FFC72C" fill="none" stroke-width="2" stroke-linecap="round" stroke-linejoin="round" cx="9" cy="7" r="4"></circle></g><text x="118" y="35" font-size="19" font-weight="bold" fill="#051C2C" font-family="Georgia, Songti SC, STSong, serif" dominant-baseline="alphabetic">人力</text><text x="88" y="59" font-size="15" fill="#051C2C" fill-opacity="0.85" font-family="Georgia, Songti SC, STSong, serif" dominant-baseline="alphabetic">单点超载、岗位不相容 → 管户重配 SOP +</text><text x="88" y="80" font-size="15" fill="#051C2C" fill-opacity="0.85" font-family="Georgia, Songti SC, STSong, serif" dominant-baseline="alphabetic">岗位分离 → 补 1-2 名经理、零产单 -15pct</text></g><g data-audit-box="753.76,369,410.24"><rect x="0" y="116" width="410.24" height="102" rx="2" fill="#FFFFFF" stroke="none" stroke-width="1"></rect><circle cx="46" cy="167" r="19" fill="none" stroke="#6B6B6B" stroke-width="1.5"></circle><text x="46" y="173" text-anchor="middle" font-size="16" font-weight="bold" fill="#051C2C" font-family="Georgia, Songti SC, STSong, serif" dominant-baseline="alphabetic">2</text><g transform="translate(88,134) scale(0.8333333333333334)"><path stroke="#FFC72C" fill="none" stroke-width="2" stroke-linecap="round" stroke-linejoin="round" d="m16 11 2 2 4-4"></path><path stroke="#FFC72C" fill="none" stroke-width="2" stroke-linecap="round" stroke-linejoin="round" d="M16 21v-2a4 4 0 0 0-4-4H6a4 4 0 0 0-4 4v2"></path><circle stroke="#FFC72C" fill="none" stroke-width="2" stroke-linecap="round" stroke-linejoin="round" cx="9" cy="7" r="4"></circle></g><text x="118" y="151" font-size="19" font-weight="bold" fill="#051C2C" font-family="Georgia, Songti SC, STSong, serif" dominant-baseline="alphabetic">管户</text><text x="88" y="175" font-size="15" fill="#051C2C" fill-opacity="0.85" font-family="Georgia, Songti SC, STSong, serif" dominant-baseline="alphabetic">摊大饼、尾部零产出 → 尾部收归头部 + AI</text><text x="88" y="196" font-size="15" fill="#051C2C" fill-opacity="0.85" font-family="Georgia, Songti SC, STSong, serif" dominant-baseline="alphabetic">承接、划片 → 同店 AUM/人净增（控 β）</text></g><g data-audit-box="753.76,485,410.24"><rect x="0" y="232" width="410.24" height="96" rx="2" fill="#FFFFFF" stroke="none" stroke-width="1"></rect><circle cx="46" cy="280" r="19" fill="none" stroke="#6B6B6B" stroke-width="1.5"></circle><text x="46" y="286" text-anchor="middle" font-size="16" font-weight="bold" fill="#051C2C" font-family="Georgia, Songti SC, STSong, serif" dominant-baseline="alphabetic">3</text><g transform="translate(88,250) scale(0.8333333333333334)"><path stroke="#FFC72C" fill="none" stroke-width="2" stroke-linecap="round" stroke-linejoin="round" d="M15 21v-5a1 1 0 0 0-1-1h-4a1 1 0 0 0-1 1v5"></path><path stroke="#FFC72C" fill="none" stroke-width="2" stroke-linecap="round" stroke-linejoin="round" d="M17.774 10.31a1.12 1.12 0 0 0-1.549 0 2.5 2.5 0 0 1-3.451 0 1.12 1.12 0 0 0-1.548 0 2.5 2.5 0 0 1-3.452 0 1.12 1.12 0 0 0-1.549 0 2.5 2.5 0 0 1-3.77-3.248l2.889-4.184A2 2 0 0 1 7 2h10a2 2 0 0 1 1.653.873l2.895 4.192a2.5 2.5 0 0 1-3.774 3.244"></path><path stroke="#FFC72C" fill="none" stroke-width="2" stroke-linecap="round" stroke-linejoin="round" d="M4 10.95V19a2 2 0 0 0 2 2h12a2 2 0 0 0 2-2v-8.05"></path></g><text x="118" y="267" font-size="19" font-weight="bold" fill="#051C2C" font-family="Georgia, Songti SC, STSong, serif" dominant-baseline="alphabetic">厅堂</text><text x="88" y="288" font-size="13" fill="#051C2C" fill-opacity="0.85" font-family="Georgia, Songti SC, STSong, serif" dominant-baseline="alphabetic">询问转化低、沉睡户无人管 → 私行沙龙</text><text x="88" y="306" font-size="13" fill="#051C2C" fill-opacity="0.85" font-family="Georgia, Songti SC, STSong, serif" dominant-baseline="alphabetic">6+3、沉默户前瞻指标 → 达标户/场、AUM 净增/场</text></g></g></g></g><text x="96" y="652" font-family="Georgia, Songti SC, STSong, serif" font-size="20" fill="#6B6B6B" font-style="italic" dominant-baseline="alphabetic">出处：98wiki #203、DOC-0075 · 99wiki 06 月人力汇报 / 07-04。</text></g><line x1="56" y1="664" x2="1224" y2="664" stroke="#D5D5CB" stroke-width="1.2"></line><text x="56" y="700" font-size="20" fill="#6B6B6B" font-family="Georgia, Songti SC, STSong, serif" dominant-baseline="alphabetic">运营版 v2（可落地版 · 三轮质询已并入） · 2026-08-25</text><text x="1224" y="700" font-size="20" text-anchor="end" fill="#6B6B6B" font-family="Georgia, Songti SC, STSong, serif" dominant-baseline="alphabetic">Internal · 智见点评</text></svg>