<svg viewBox="0 0 1280 720" xmlns="http://www.w3.org/2000/svg"><rect x="0" y="0" width="1280" height="720" fill="#F7F7F2"></rect><g data-decor="true"><rect x="1216" y="44" width="10" height="10" fill="#051C2C" opacity="0.85"></rect></g><g data-archetype="side-highlight"><text x="96" y="150" font-family="Georgia, Songti SC, STSong, serif" font-size="42" font-weight="700" fill="#051C2C" dominant-baseline="alphabetic">核心结论：能溢价的是确定性，不是保证</text><g data-audit-rect="96,190,880,442"><g data-audit-box="96,190,880"><g transform="translate(96,190)" data-audit-box="96,190,880" data-audit-rect="96,190,880,108"><line x1="64" y1="2" x2="880" y2="2" stroke="#D5D5CB" stroke-width="1"></line><rect x="0" y="0" width="64" height="4" fill="#D9822B"></rect><g transform="translate(0,27) scale(0.9166666666666666)"><path stroke="#D9822B" fill="none" stroke-width="2" stroke-linecap="round" stroke-linejoin="round" d="M20 13c0 5-3.5 7.5-7.66 8.95a1 1 0 0 1-.67-.01C7.5 20.5 4 18 4 13V6a1 1 0 0 1 1-1c2 0 4.5-1.2 6.24-2.72a1.17 1.17 0 0 1 1.52 0C14.51 3.81 17 5 19 5a1 1 0 0 1 1 1z"></path><path stroke="#D9822B" fill="none" stroke-width="2" stroke-linecap="round" stroke-linejoin="round" d="m9 12 2 2 4-4"></path></g><text x="38" y="48" font-family="Georgia, Songti SC, STSong, serif" font-size="28" font-weight="600" fill="#051C2C" dominant-baseline="alphabetic">能溢价的是确定性，不是保证：租客愿意为「我知道风险、我看到整</text><text x="38" y="84" font-family="Georgia, Songti SC, STSong, serif" font-size="28" font-weight="600" fill="#051C2C" dominant-baseline="alphabetic">改、我有人赔付」付费，没有人能买到「绝对安全」。</text></g></g><g data-audit-box="96,314,880"><g transform="translate(96,314)"><text x="0" y="35" font-family="Georgia, Songti SC, STSong, serif" font-size="32" fill="#051C2C" dominant-baseline="alphabetic">平台六项过程责任：发现、分级、披露、督促整改、停租下架</text><text x="0" y="80" font-family="Georgia, Songti SC, STSong, serif" font-size="32" fill="#051C2C" dominant-baseline="alphabetic">、保险安排</text><text x="0" y="133" font-family="Georgia, Songti SC, STSong, serif" font-size="32" fill="#051C2C" dominant-baseline="alphabetic">产权人承担法定维修义务，赔付按过错归因、走保险化</text><text x="0" y="186" font-family="Georgia, Songti SC, STSong, serif" font-size="32" fill="#051C2C" dominant-baseline="alphabetic">四件套量化入合同：风险分级、停租阈值、整改SLA、赔付边</text><text x="0" y="231" font-family="Georgia, Songti SC, STSong, serif" font-size="32" fill="#051C2C" dominant-baseline="alphabetic">界</text></g></g></g><rect x="1008" y="72" width="176" height="568" rx="12" fill="#051C2C"></rect><text x="1032" y="116" font-family="Georgia, Songti SC, STSong, serif" font-size="13" font-weight="700" letter-spacing="1" fill="#FFFFFF" opacity="0.85" dominant-baseline="alphabetic">1.1</text><text x="1096" y="356" text-anchor="middle" font-family="Georgia, Songti SC, STSong, serif" font-size="128" font-weight="800" fill="#FFFFFF" opacity="0.18" dominant-baseline="alphabetic">01</text><rect x="1032" y="564" width="28" height="3" fill="#FFFFFF" opacity="0.4"></rect><text x="1032" y="600" font-family="Georgia, Songti SC, STSong, serif" font-size="14" fill="#FFFFFF" opacity="0.85" dominant-baseline="alphabetic">98wiki ｜ 智见</text></g><line x1="56" y1="664" x2="1224" y2="664" stroke="#D5D5CB" stroke-width="1.2"></line><text x="56" y="700" font-size="20" fill="#6B6B6B" font-family="Georgia, Songti SC, STSong, serif" dominant-baseline="alphabetic">1.0 · 2026-08-23</text><text x="1224" y="700" font-size="20" text-anchor="end" fill="#6B6B6B" font-family="Georgia, Songti SC, STSong, serif" dominant-baseline="alphabetic">Public · 98wiki ｜ 智见</text></svg>