<svg viewBox="0 0 1280 720" xmlns="http://www.w3.org/2000/svg"><rect x="0" y="0" width="1280" height="720" fill="#F7F7F2"></rect><g data-decor="true"></g><g data-archetype="image-lead-split"><text x="96" y="150" font-family="Georgia, Songti SC, STSong, serif" font-size="38" font-weight="700" fill="#051C2C" dominant-baseline="alphabetic">证据：四组关键事实</text><g data-audit-rect="96,190,788,442"><g data-audit-box="96,190,788"><g transform="translate(96,190)"><g><rect x="0" y="0" width="185" height="204" rx="2" fill="#FFFFFF"></rect><g transform="translate(20,54) scale(0.75)"><path stroke="#051C2C" fill="none" stroke-width="2" stroke-linecap="round" stroke-linejoin="round" d="M22 12h-2.48a2 2 0 0 0-1.93 1.46l-2.35 8.36a.25.25 0 0 1-.48 0L9.24 2.18a.25.25 0 0 0-.48 0l-2.35 8.36A2 2 0 0 1 4.49 12H2"></path></g><text x="20" y="106" font-size="33" font-weight="bold" fill="#051C2C" font-family="Georgia, Songti SC, STSong, serif" dominant-baseline="alphabetic">12.7<tspan font-size="15" fill="#6B6B6B">/万套</tspan></text><text x="165" y="78" text-anchor="end" font-size="20" fill="#6B6B6B" dominant-baseline="alphabetic">→</text><text x="20" y="138" font-size="15" fill="#6B6B6B" font-family="Georgia, Songti SC, STSong, serif" dominant-baseline="alphabetic">每万套风险 · 2026Q1</text></g><g><rect x="201" y="0" width="185" height="204" rx="2" fill="#FFFFFF"></rect><g transform="translate(221,54) scale(0.75)"><path stroke="#051C2C" fill="none" stroke-width="2" stroke-linecap="round" stroke-linejoin="round" d="M16 17h6v-6"></path><path stroke="#051C2C" fill="none" stroke-width="2" stroke-linecap="round" stroke-linejoin="round" d="m22 17-8.5-8.5-5 5L2 7"></path></g><text x="221" y="106" font-size="40" font-weight="bold" fill="#051C2C" font-family="Georgia, Songti SC, STSong, serif" dominant-baseline="alphabetic">-42%</text><text x="366" y="78" text-anchor="end" font-size="20" fill="#DC2626" dominant-baseline="alphabetic">↓</text><text x="221" y="138" font-size="15" fill="#6B6B6B" font-family="Georgia, Songti SC, STSong, serif" dominant-baseline="alphabetic">漏气同比 · 闭环见效</text></g><g><rect x="402" y="0" width="185" height="204" rx="2" fill="#FFFFFF"></rect><g transform="translate(422,54) scale(0.75)"><path stroke="#051C2C" fill="none" stroke-width="2" stroke-linecap="round" stroke-linejoin="round" d="M20 13c0 5-3.5 7.5-7.66 8.95a1 1 0 0 1-.67-.01C7.5 20.5 4 18 4 13V6a1 1 0 0 1 1-1c2 0 4.5-1.2 6.24-2.72a1.17 1.17 0 0 1 1.52 0C14.51 3.81 17 5 19 5a1 1 0 0 1 1 1z"></path><path stroke="#051C2C" fill="none" stroke-width="2" stroke-linecap="round" stroke-linejoin="round" d="m14.5 9.5-5 5"></path><path stroke="#051C2C" fill="none" stroke-width="2" stroke-linecap="round" stroke-linejoin="round" d="m9.5 9.5 5 5"></path></g><text x="422" y="106" font-size="40" font-weight="bold" fill="#051C2C" font-family="Georgia, Songti SC, STSong, serif" dominant-baseline="alphabetic">2.5<tspan font-size="18" fill="#6B6B6B">万套</tspan></text><text x="567" y="78" text-anchor="end" font-size="20" fill="#0A0E14" dominant-baseline="alphabetic">↑</text><text x="422" y="138" font-size="15" fill="#6B6B6B" font-family="Georgia, Songti SC, STSong, serif" dominant-baseline="alphabetic">18个月拦截风险房源</text></g><g><rect x="603" y="0" width="185" height="204" rx="2" fill="#FFFFFF"></rect><g transform="translate(623,54) scale(0.75)"><path stroke="#051C2C" fill="none" stroke-width="2" stroke-linecap="round" stroke-linejoin="round" d="M10 12h4"></path><path stroke="#051C2C" fill="none" stroke-width="2" stroke-linecap="round" stroke-linejoin="round" d="M10 8h4"></path><path stroke="#051C2C" fill="none" stroke-width="2" stroke-linecap="round" stroke-linejoin="round" d="M14 21v-3a2 2 0 0 0-4 0v3"></path><path stroke="#051C2C" fill="none" stroke-width="2" stroke-linecap="round" stroke-linejoin="round" d="M6 10H4a2 2 0 0 0-2 2v7a2 2 0 0 0 2 2h16a2 2 0 0 0 2-2V9a2 2 0 0 0-2-2h-2"></path><path stroke="#051C2C" fill="none" stroke-width="2" stroke-linecap="round" stroke-linejoin="round" d="M6 21V5a2 2 0 0 1 2-2h8a2 2 0 0 1 2 2v16"></path></g><text x="623" y="106" font-size="37" font-weight="bold" fill="#051C2C" font-family="Georgia, Songti SC, STSong, serif" dominant-baseline="alphabetic">10<tspan font-size="17" fill="#6B6B6B">万套+</tspan></text><text x="768" y="78" text-anchor="end" font-size="20" fill="#0A0E14" dominant-baseline="alphabetic">↑</text><text x="623" y="138" font-size="16" fill="#6B6B6B" font-family="Georgia, Songti SC, STSong, serif" dominant-baseline="alphabetic">成都燃气联合管控</text></g></g></g><g data-audit-box="96,434,788"><g transform="translate(96,434)"><text x="0" y="21" font-family="Georgia, Songti SC, STSong, serif" font-size="19" fill="#051C2C" dominant-baseline="alphabetic">2026-07 仍有租客因无地线冰箱漏电受伤投诉（媒体披露口径）——燃气在改善、电气在原地</text><text x="0" y="56" font-family="Georgia, Songti SC, STSong, serif" font-size="19" fill="#051C2C" dominant-baseline="alphabetic">累计服务赔付金超 2 亿元（媒体披露口径，性质待拆分：保障金 or 事故赔付）</text><text x="0" y="91" font-family="Georgia, Songti SC, STSong, serif" font-size="19" fill="#051C2C" dominant-baseline="alphabetic">无锡办法、深圳福田须知、杭州条例：九个月内三地立法，平台安全义务显性化</text></g></g></g><g data-audit-rect="924,72,260,568"><rect x="924" y="72" width="260" height="568" rx="20" fill="#FFFFFF"></rect><rect x="924.5" y="72.5" width="259" height="567" rx="20" fill="none" stroke="#D5D5CB" stroke-width="1"></rect><circle cx="1054" cy="356" r="57.2" fill="#051C2C" fill-opacity="0.1"></circle><rect x="1022" y="441.2" width="64" height="4" rx="2" fill="#FFC72C"></rect></g></g><line x1="56" y1="664" x2="1224" y2="664" stroke="#D5D5CB" stroke-width="1.2"></line><text x="56" y="700" font-size="20" fill="#6B6B6B" font-family="Georgia, Songti SC, STSong, serif" dominant-baseline="alphabetic">1.0 · 2026-08-23</text><text x="1224" y="700" font-size="20" text-anchor="end" fill="#6B6B6B" font-family="Georgia, Songti SC, STSong, serif" dominant-baseline="alphabetic">Public · 98wiki ｜ 智见</text></svg>